<?xml version="1.0" encoding="utf-8"?>
<!-- Generator: Adobe Illustrator 23.0.3, SVG Export Plug-In . SVG Version: 6.00 Build 0)  -->
<svg version="1.1" id="Layer_1" xmlns="http://www.w3.org/2000/svg" xmlns:xlink="http://www.w3.org/1999/xlink" x="0px" y="0px"
	 viewBox="0 0 256 256" style="enable-background:new 0 0 256 256;" xml:space="preserve">
<style type="text/css">
	.st0{fill:#B45309;stroke:#000000;stroke-width:2;stroke-miterlimit:10;}
	.st1{fill:#FBBF24;stroke:#000000;stroke-width:2;stroke-miterlimit:10;}
	.st2{fill:#DC2626;stroke:#000000;stroke-width:2;stroke-miterlimit:10;}
</style>
<g>
	<path class="st0" d="M49.3,210.4l165.1-42.7c3.7-1,5.6-5,4.1-8.4c-3.8-8.6-14.4-26.8-44.2-62s-46-48.7-53.9-53.8
		c-3.2-2.1-7.5-0.8-9,2.7L42.1,201.9C40,206.6,44.3,211.7,49.3,210.4z"/>
	<path class="st1" d="M195.5,172.5c-5.1-9.9-16.6-27.5-42.1-57.6s-41-44.3-49.9-51L36.9,213.6L195.5,172.5z"/>
	<circle class="st2" cx="154.7" cy="151.9" r="15.3"/>
	<circle class="st2" cx="105.6" cy="132.5" r="15.3"/>
	<circle class="st2" cx="128.5" cy="127.9" r="15.3"/>
	<circle class="st2" cx="83.2" cy="178.4" r="15.3"/>
</g>
</svg>
